<?xml version="1.0" encoding="utf-8"?>
<!-- Generator: Adobe Illustrator 24.0.2, SVG Export Plug-In . SVG Version: 6.00 Build 0)  -->
<svg version="1.1" id="Слой_1" xmlns="http://www.w3.org/2000/svg" xmlns:xlink="http://www.w3.org/1999/xlink" x="0px" y="0px"
	 viewBox="0 0 24 24" style="enable-background:new 0 0 24 24;" xml:space="preserve">
<path d="M20.4,3.6c2,0,3.6,1.6,3.6,3.6v12c0,2-1.6,3.6-3.6,3.6H3.6c-2,0-3.6-1.6-3.6-3.6v-12c0-2,1.6-3.6,3.6-3.6V6
	c0,1.3,1.1,2.4,2.4,2.4S8.4,7.3,8.4,6V3.6h1.2V6c0,1.3,1.1,2.4,2.4,2.4s2.4-1.1,2.4-2.4V3.6h1.2V6c0,1.3,1.1,2.4,2.4,2.4
	c1.3,0,2.4-1.1,2.4-2.4V3.6z M3.6,10.8v2.4H6v-2.4H3.6z M3.6,15.6V18H6v-2.4H3.6z M18,15.6V18h2.4v-2.4H18z M18,10.8v2.4h2.4v-2.4
	H18z M8.4,10.8v2.4h2.4v-2.4H8.4z M13.2,10.8v2.4h2.4v-2.4H13.2z M13.2,15.6V18h2.4v-2.4H13.2z M8.4,15.6V18h2.4v-2.4H8.4z M6,1.2
	c0.7,0,1.2,0.5,1.2,1.2V6c0,0.7-0.5,1.2-1.2,1.2S4.8,6.7,4.8,6V2.4C4.8,1.7,5.3,1.2,6,1.2z M18,1.2c0.7,0,1.2,0.5,1.2,1.2V6
	c0,0.7-0.5,1.2-1.2,1.2S16.8,6.7,16.8,6V2.4C16.8,1.7,17.3,1.2,18,1.2z M14.7,8.6H9.2v-5h5.5V8.6z"/>
</svg>
