<?xml version="1.0" encoding="utf-8"?>
<!-- Generator: Adobe Illustrator 24.0.2, SVG Export Plug-In . SVG Version: 6.00 Build 0)  -->
<svg version="1.1" id="Слой_1" xmlns="http://www.w3.org/2000/svg" xmlns:xlink="http://www.w3.org/1999/xlink" x="0px" y="0px"
	 viewBox="0 0 24 24" style="enable-background:new 0 0 24 24;" xml:space="preserve">
<style type="text/css">
	.st0{fill:#000000;}
</style>
<path id="Path" class="st0" d="M23.4,10.4L23.4,10.4l-9.8-9.8c-0.9-0.9-2.3-0.9-3.1,0l-9.8,9.8l0,0c-0.8,0.8-0.9,2.2,0,3.1
	c0,0,0,0,0.1,0.1C1,14,1.6,14.2,2.1,14.2c0,0,0,0,0.1,0h0.4v7.2c0,1.4,1.2,2.6,2.6,2.6H9c0.4,0,0.7-0.3,0.7-0.7v-5.6
	c0-0.7,0.5-1.2,1.2-1.2h2.3c0.6,0,1.2,0.5,1.2,1.2v5.6c0,0.4,0.3,0.7,0.7,0.7h3.8c1.4,0,2.6-1.1,2.6-2.6v-7.2h0.4
	c0.6,0,1.1-0.2,1.6-0.6C24.2,12.7,24.2,11.4,23.4,10.4C23.4,10.5,23.4,10.5,23.4,10.4L23.4,10.4z"/>
</svg>
