<?xml version="1.0" encoding="utf-8"?>
<!-- Generator: Adobe Illustrator 24.0.2, SVG Export Plug-In . SVG Version: 6.00 Build 0)  -->
<svg version="1.1" id="Слой_1" xmlns="http://www.w3.org/2000/svg" xmlns:xlink="http://www.w3.org/1999/xlink" x="0px" y="0px"
	 viewBox="0 0 24 24" style="enable-background:new 0 0 24 24;" xml:space="preserve">
<style type="text/css">
	.st0{fill:#000000;}
</style>
<g transform="translate(0)">
	<path class="st0" d="M11.9,0c-0.6,0-1.2,0.3-1.7,0.7l0,0C9.8,1.2,9.5,1.8,9.5,2.4l0,0v0.1C5.8,3.6,3.2,7,3.2,10.9l0,0l0,3.8v0
		c0,1.3-0.4,2.6-1.2,3.7l0,0c-0.5,0.4-0.8,1.1-0.8,1.7l0,0v0c0.1,0.8,0.7,1.5,1.6,1.4l0,0l2.4,0c0.1,0.6,0.4,1.2,0.8,1.6l0,0
		c0.3,0.3,0.6,0.5,1,0.7l0,0C7.3,23.9,7.7,24,8,24h0.3c0.8,0,1.5-0.3,2.1-0.9l0,0c0.4-0.4,0.7-1,0.8-1.6l0,0l10.1,0
		c0.8,0,1.5-0.7,1.5-1.5l0,0c0-0.3-0.1-0.6-0.2-0.9l0,0c-0.1-0.3-0.3-0.6-0.6-0.8l0,0c-0.8-1.1-1.2-2.4-1.3-3.7l0,0c0,0,0,0,0,0l0,0
		l0-3.8c0-2.3-1-4.6-2.6-6.2l0,0c-1.1-1.1-2.4-1.8-3.8-2.2l0,0V2.4c0-0.6-0.3-1.2-0.7-1.7l0,0C13.2,0.3,12.6,0,11.9,0L11.9,0z"/>
</g>
</svg>
